<svg
  xmlns="http://www.w3.org/2000/svg"
  width="1336"
  height="1240"
  viewBox="0 0 1336 1240"
  fill="none"
>
  <rect width="1336" height="1240" fill="#DEE1EB" />
  <rect x="103" y="115" width="1094" height="868" rx="48" fill="#F4F4F5" />
  <text
    x="668"
    y="233"
    fill="#6758CE"
    font-family="Arial, Helvetica, sans-serif"
    font-size="56"
    text-anchor="middle"
  >
    Square Breathing
  </text>
  <text
    x="668"
    y="346"
    fill="#2C2C2C"
    font-family="Arial, Helvetica, sans-serif"
    font-size="40"
    text-anchor="middle"
  >
    This is a 3-minute activity. Inhale slowly for a count
  </text>
  <text
    x="668"
    y="404"
    fill="#2C2C2C"
    font-family="Arial, Helvetica, sans-serif"
    font-size="40"
    text-anchor="middle"
  >
    of 4. Hold your breath for a count of 4. Exhale
  </text>
  <text
    x="668"
    y="462"
    fill="#2C2C2C"
    font-family="Arial, Helvetica, sans-serif"
    font-size="40"
    text-anchor="middle"
  >
    slowly for a count of 4. Hold your empty breath for
  </text>
  <text
    x="668"
    y="520"
    fill="#2C2C2C"
    font-family="Arial, Helvetica, sans-serif"
    font-size="40"
    text-anchor="middle"
  >
    a count of 4. Repeat this cycle to calm your nervous
  </text>
  <text
    x="668"
    y="578"
    fill="#2C2C2C"
    font-family="Arial, Helvetica, sans-serif"
    font-size="40"
    text-anchor="middle"
  >
    system.
  </text>
  <rect x="575" y="665" width="152" height="78" rx="24" fill="#ECEAEC" />
  <text
    x="651"
    y="716"
    fill="#66676A"
    font-family="Arial, Helvetica, sans-serif"
    font-size="36"
    text-anchor="middle"
  >
    02:50
  </text>
  <text
    x="668"
    y="820"
    fill="#7C7C7E"
    font-family="Arial, Helvetica, sans-serif"
    font-size="31"
    text-anchor="middle"
  >
    Rate this activity
  </text>
  <g stroke="#F0AD42" stroke-width="5" stroke-linejoin="round">
    <path d="M510 857L519 877H540L523 888L529 908L510 896L491 908L497 888L480 877H501L510 857Z" />
    <path d="M582 857L591 877H612L595 888L601 908L582 896L563 908L569 888L552 877H573L582 857Z" />
    <path d="M654 857L663 877H684L667 888L673 908L654 896L635 908L641 888L624 877H645L654 857Z" />
    <path d="M726 857L735 877H756L739 888L745 908L726 896L707 908L713 888L696 877H717L726 857Z" />
    <path d="M798 857L807 877H828L811 888L817 908L798 896L779 908L785 888L768 877H789L798 857Z" />
  </g>
  <rect x="402" y="1089" width="214" height="72" rx="29" fill="#DADAF0" />
  <path
    d="M469 1125H439M439 1125L452 1112M439 1125L452 1138"
    stroke="#26263D"
    stroke-width="4"
    stroke-linecap="round"
    stroke-linejoin="round"
  />
  <text
    x="519"
    y="1136"
    fill="#26263D"
    font-family="Arial, Helvetica, sans-serif"
    font-size="29"
    text-anchor="middle"
  >
    Back
  </text>
  <rect x="649" y="1083" width="247" height="78" rx="30" fill="#6758CE" />
  <path
    d="M717 1116C709 1117 704 1124 704 1132C704 1140 710 1147 719 1147C726 1147 732 1141 732 1133"
    stroke="#FFFFFF"
    stroke-width="4"
    stroke-linecap="round"
  />
  <path
    d="M715 1113H730V1128"
    stroke="#FFFFFF"
    stroke-width="4"
    stroke-linecap="round"
    stroke-linejoin="round"
  />
  <text
    x="798"
    y="1134"
    fill="#FFFFFF"
    font-family="Arial, Helvetica, sans-serif"
    font-size="29"
    text-anchor="middle"
  >
    Next Tip
  </text>
</svg>
